<?xml version="1.0" encoding="UTF-8"?>
<svg width="189px" height="46px" viewBox="0 0 189 46" version="1.1" xmlns="http://www.w3.org/2000/svg" xmlns:xlink="http://www.w3.org/1999/xlink">
    <!-- Generator: Sketch 61 (89581) - https://sketch.com -->
    <title>veganvibestitel</title>
    <desc>Created with Sketch.</desc>
    <g id="Vegan-Vibes-Landingspage" stroke="none" stroke-width="1" fill="none" fill-rule="evenodd">
        <g id="Desktop-HD-Copy-8" transform="translate(-816.000000, -140.000000)" fill="#000000" fill-rule="nonzero">
            <g id="veganvibestitel" transform="translate(816.000000, 140.000000)">
                <path d="M131.5,10.9803081 L131.5,10.7330208 L131.25402,10.771065 C131.14049,10.7330208 131.045883,10.7139987 130.951275,10.7139987 C130.799902,10.6949766 130.667451,10.7330208 130.572844,10.8091092 C130.459314,10.9042197 130.40255,11.0563965 130.421471,11.2466175 C130.270099,15.4695244 129.929511,19.3119893 129.418629,22.6598794 C128.3401,29.9073007 127.034512,35.9563295 125.539709,40.654789 C125.104514,42.0053583 124.707161,43.051574 124.366573,43.8124581 L124.32873,43.8695244 L124.347651,43.9265908 C124.347651,43.9265908 124.347651,43.964635 124.290887,44.0787676 C124.2152,44.2119223 124.139514,44.345077 124.101671,44.4592096 C124.044906,44.5733423 123.988142,44.6874749 123.931377,44.8016075 C123.874612,44.9157401 123.798926,45.0108506 123.72324,45.086939 C123.647554,45.1630275 123.628632,45.1630275 123.628632,45.1630275 L123.609711,45.1630275 C123.552946,45.1440054 123.496181,45.1249833 123.420495,45.1440054 C123.401573,45.1249833 123.36373,45.1249833 123.325887,45.1249833 C122.928535,44.8776959 122.531182,44.2499665 122.095986,43.2798392 C121.320202,41.4346952 120.544418,38.9427997 119.749713,35.8802411 C118.955008,32.8176825 118.387361,30.3638312 118.046773,28.5567314 C117.687263,26.7306095 117.195303,23.9914267 116.533048,20.3772271 C115.908637,17.0293369 115.246382,14.2521098 114.546285,12.1787006 C114.375991,11.5509712 114.111089,11.0563965 113.770501,10.7139987 L113.713736,10.6759545 C113.524521,10.5808439 113.373148,10.5237776 113.240697,10.5047555 C113.070403,10.4857334 112.900109,10.5237776 112.78658,10.6188881 C112.691972,10.6949766 112.616286,10.771065 112.521678,10.8661755 C112.42707,10.9803081 112.351384,11.1134628 112.294619,11.3036839 C112.237855,11.4748828 112.200012,11.5890154 112.18109,11.703148 C112.162168,11.7982585 112.143247,11.9314133 112.105404,12.1216343 C112.105404,12.1596785 112.086482,12.1977227 112.086482,12.2357669 L112.029718,12.2357669 L112.010796,12.3879437 C111.954031,12.7113195 112.124325,12.9776289 112.445992,13.0727395 C112.5406,13.1107837 112.710894,13.1107837 112.881188,12.9586068 C112.975795,12.8634963 113.070403,12.7493637 113.146089,12.5971869 C113.202854,12.4640322 113.240697,12.3498995 113.27854,12.2357669 C113.297462,12.1977227 113.297462,12.1406564 113.316383,12.064568 C113.39207,12.2167448 113.467756,12.3689216 113.524521,12.5401206 C113.656972,12.9015405 113.751579,13.2058942 113.808344,13.4912257 C113.865109,13.7765573 113.959716,14.1760214 114.054324,14.7086403 C114.167854,15.2412592 114.262461,15.6597455 114.338148,15.945077 C114.716579,17.6190221 115.246382,20.2060281 115.984323,23.8963161 C116.703342,27.5295378 117.28991,30.2877428 117.725106,32.1328868 C119.030694,37.5351641 120.241673,41.3776289 121.282359,43.5271266 C121.509418,44.0026792 121.679712,44.3640991 121.812163,44.6113865 C121.944614,44.8586738 122.190594,45.1440054 122.493339,45.448359 C122.815005,45.7527127 123.193436,45.9429337 123.571868,46 L123.609711,46 L123.798926,45.9619558 L123.988142,45.8668453 C124.196279,45.7907569 124.385494,45.63858 124.517945,45.448359 C124.631475,45.2771601 124.726083,45.1440054 124.801769,45.0488948 C124.896377,44.9347622 124.990984,44.7445412 125.085592,44.4592096 C125.218043,44.1358339 125.255886,44.0597455 125.255886,44.0597455 L125.274808,44.0217013 C126.126278,42.0814468 127.091277,38.7906229 128.113041,34.2443403 C129.815981,26.7686537 130.913432,20.0538513 131.367549,14.2330877 C131.443235,12.7303416 131.5,11.6270596 131.5,10.9803081 M136.943892,23.0522388 C136.999252,22.9268657 137.017706,22.8014925 136.980799,22.658209 L136.962346,22.5507463 C136.925439,22.3716418 136.833172,22.2104478 136.685545,22.1208955 C136.537919,22.0134328 136.371839,21.9776119 136.168852,22.0134328 C135.928958,22.0492537 135.744425,22.138806 135.633705,22.2820896 C135.522985,22.4253731 135.486078,22.6044776 135.504531,22.819403 C135.504531,22.9626866 135.541438,23.1597015 135.781331,23.338806 C135.947412,23.4462687 136.113492,23.5 136.279572,23.5 C136.298025,23.5 136.334932,23.5 136.353385,23.5 C136.482559,23.4820896 136.593279,23.4283582 136.685545,23.3746269 C136.814719,23.2671642 136.888532,23.1776119 136.943892,23.0522388 M178.971903,28.2786342 C179.334484,28.6774469 179.620732,29.0192863 179.849731,29.3041525 C180.078729,29.5890187 180.345894,29.9308581 180.632142,30.3296708 C180.899307,30.7094923 181.147389,31.0893139 181.338221,31.4691355 C181.529054,31.8489571 181.681719,32.2477697 181.834385,32.6465824 C182.006134,33.2542969 182.0443,33.8240293 181.948884,34.3557795 L181.948884,34.3557795 C181.815302,35.2293691 181.223722,36.0459855 180.174145,36.7486555 C179.105485,37.4703165 177.903243,37.8881202 176.548335,37.9830756 C175.231593,38.078031 174.14385,37.7741737 173.323272,37.0525127 C172.827108,36.6916822 172.559943,36.2358963 172.521777,35.6471729 C172.464527,35.0204673 172.521777,34.4507349 172.674442,33.9379758 C172.827108,33.4252166 173.037023,32.9124575 173.304188,32.4566716 C174.258349,30.9183942 175.937672,29.2661703 178.284907,27.5 C178.456656,27.7089019 178.685655,27.974777 178.971903,28.2786342 M162,25 C162.401826,24.270936 162.913242,23.5615764 163.534247,22.8719212 C164.283105,22.044335 165.123288,21.4137931 166,21 C165.945205,21.1970443 165.835616,21.3743842 165.707763,21.5517241 C164.86758,23.1871921 163.625571,24.3497537 162,25 M152.482038,29.5 C151.136302,29.3376104 150.214566,28.8684849 149.698393,28.0745801 C149.385003,27.4791515 149.440307,26.9378528 149.882741,26.4326407 C150.30674,25.9454719 150.767608,25.8732987 151.302215,26.1980779 C151.744649,26.4867706 152.058039,26.9558961 152.279256,27.6234978 C152.463603,28.255013 152.537342,28.8865281 152.482038,29.5 M145.5,26 C145.556338,25.5015337 145.631455,24.9072086 145.706572,24.2170245 C145.856806,22.8941718 145.969481,21.8397239 146.082157,21.1111963 C147.00234,15.3596626 148.053978,10.7392638 149.218291,7.38420245 C150.119695,4.89187117 151.00232,3.01303681 151.884945,1.80521472 C152.316868,1.19171779 152.598556,1.01917178 152.74879,1 C152.74879,1 152.76757,1 152.76757,1 C152.786349,1 152.786349,1 152.786349,1 C152.786349,1 152.805128,1.03834356 152.823907,1.11503067 L152.842687,1.17254601 C152.861466,1.21088957 152.917804,1.34509202 152.992921,1.78604294 C153.030479,2.49539877 152.917804,3.51150307 152.673673,4.77684049 C151.922503,8.47699387 150.776969,12.541411 149.274629,16.8934049 C147.978861,20.5168712 146.720651,23.565184 145.5,26 M188.988313,21.2222533 L188.969112,21.1649981 L188.93071,21.1268279 C188.738699,20.8978071 188.489084,20.8214668 188.23947,20.9168921 C185.263298,21.7948055 181.941506,23.5506324 178.389301,26.1080323 C177.467648,25.0392682 176.949218,23.9323339 176.872413,22.8253996 C176.795609,21.7184652 177.16043,20.7069563 177.947675,19.8099578 C178.734921,18.8938743 179.75258,18.3022369 180.943048,18.0350459 C181.461478,17.9587056 181.864702,17.9587056 182.133517,18.0732161 C182.36393,18.1686414 182.498338,18.3404071 182.555942,18.6075981 C182.594344,18.836619 182.594344,19.1038101 182.575143,19.3900862 L182.575143,19.3900862 C182.555942,19.6572772 182.671148,19.867213 182.901561,19.9626384 C183.093573,20.0580638 183.304785,20.0580638 183.515997,19.9817235 C183.74641,19.8862981 183.880818,19.7145324 183.861617,19.4855116 C183.996025,18.4740026 183.765611,17.7105996 183.131975,17.1762176 C182.498338,16.6609206 181.691892,16.527325 180.751037,16.7945161 C179.23415,17.1189623 177.966876,17.8632802 177.006821,19.0274698 C176.027564,20.1916593 175.60514,21.5085294 175.758749,22.9208249 C175.758749,22.9589951 175.758749,22.9780801 175.77795,23.0162503 C173.723431,25.4591398 171.304091,27.1958816 168.577534,28.1692203 C167.041445,28.7417726 165.582161,28.9898785 164.276485,28.9135382 C162.356375,28.7799427 161.319515,28.1883054 161.146705,27.1958816 L161.108302,27.0050308 C161.089101,26.7378398 161.146705,26.3943084 161.261911,25.9935219 C163.623648,25.4400547 165.428552,24.1040995 166.657423,22.0619966 C166.77263,21.8329757 166.94544,21.3558488 167.175853,20.6115309 L167.195054,20.5733608 L167.137451,20.2489145 C167.11825,20.115319 167.022244,20.0008086 166.849434,19.867213 C166.695825,19.7527026 166.561417,19.6954474 166.42701,19.7145324 C166.177395,19.6763623 165.90858,19.6954474 165.639764,19.7908727 L165.620563,19.7908727 C164.295687,20.3061697 162.990011,21.3176787 161.722738,22.7872294 C160.877889,23.722398 160.321057,24.6193965 160.052241,25.4782249 C160.03304,25.4782249 159.994638,25.4591398 159.975437,25.4591398 C159.783426,25.4400547 159.610616,25.49731 159.437806,25.6499905 C158.708164,26.527904 157.978522,27.2531368 157.268081,27.8066039 C155.981606,28.7990278 154.65673,29.3334099 153.351054,29.4479203 C153.44706,28.6272621 153.370255,27.825689 153.082239,27.062286 C152.775021,26.2034577 152.294993,25.5545652 151.661357,25.1537786 C150.701301,24.5430562 149.779648,24.6957368 148.992403,25.5736502 C148.205157,26.4706487 148.08995,27.4058174 148.665984,28.3600711 C149.011604,28.9707935 149.549235,29.4860905 150.259676,29.867792 C150.893312,30.2113233 151.54615,30.383089 152.179787,30.383089 C151.795764,32.1389158 150.970117,33.722977 149.722045,35.0971023 C148.512375,36.3567172 147.609923,36.7956739 147.033889,36.3758023 C146.073834,35.6887396 145.440197,34.1619337 145.113778,31.7953845 L145.056175,31.432768 L144.979371,30.2876636 C144.96017,29.0662188 144.979371,28.6654323 144.998572,28.5318368 C146.669068,25.6118204 148.320364,21.7566354 149.933257,17.0998773 C151.54615,12.4240341 152.717418,8.30165803 153.466261,4.86634466 C153.984691,2.34711485 153.946289,0.839393987 153.389457,0.266841759 C153.235848,0.114161165 152.967032,-0.0576045037 152.487004,0.0187357934 C152.160586,0.114161165 151.872569,0.305011908 151.584552,0.591288022 C150.893312,1.25926562 150.144469,2.40437008 149.357224,3.98843124 C147.609923,7.44282969 146.093035,12.5767147 144.806561,19.2374056 C144.364935,21.2985936 144.038516,23.4170369 143.827304,25.516395 C143.7505,26.4324786 143.692896,27.310392 143.654494,28.1119651 C143.500885,28.1310502 143.366477,28.1883054 143.251271,28.340986 C141.619177,30.7266203 140.006283,32.6542128 138.431792,34.0665083 L138.431792,34.0665083 C137.740552,34.7154008 137.087715,35.1543575 136.511681,35.4024635 C135.820442,35.6505695 135.340414,35.4978889 134.975593,34.9253366 C134.572369,34.3146143 134.322755,33.5321262 134.245951,32.6351277 C134.169146,30.8029606 134.457163,29.5051755 135.148403,28.7990278 C135.532425,28.3791562 135.666833,28.073795 135.551626,27.825689 C135.45562,27.6348383 135.302012,27.558498 135.186805,27.5394129 C135.052397,27.5012427 134.898788,27.5394129 134.725978,27.6157532 C134.572369,27.6920935 134.457163,27.7684338 134.361157,27.8829442 C134.284353,27.9592845 134.226749,28.0165398 134.169146,28.0547099 L134.111543,28.1119651 C133.497107,29.0089636 133.132286,30.1540681 133.01708,31.5091083 C132.921074,32.8832337 133.228292,34.1810187 133.977135,35.4024635 C134.591571,36.2422068 135.263609,36.6239083 135.97405,36.5284829 C136.14686,36.5857381 136.377274,36.547568 136.684491,36.4139724 C137.030111,36.2612918 137.145318,36.2422068 137.18372,36.2231217 C137.279726,36.2040366 137.414134,36.1658665 137.759754,35.9177605 C137.990167,35.7650799 138.143776,35.6505695 138.22058,35.5933142 C138.316586,35.536059 138.470195,35.4215486 138.681407,35.2306978 C138.873418,35.0589322 138.988625,34.9444217 139.065429,34.8871665 C140.505512,33.6275516 142.0224,31.92898 143.635293,29.8296218 C143.654494,30.6311949 143.712097,31.3564278 143.808103,32.0053203 C144.134522,34.0474232 144.78736,35.6123993 145.709013,36.6239083 C145.958627,36.9292694 146.169839,37.1582903 146.361851,37.2918859 C147.513917,38.0743739 148.896397,37.5590769 150.470888,35.7459948 C151.872569,34.2001038 152.794222,32.4061068 153.216647,30.383089 C155.616785,30.2113233 157.824913,29.0662188 159.764225,26.9668607 L159.764225,27.1577114 L159.821828,27.5012427 C160.071443,28.5318368 160.762682,29.2761547 161.876347,29.6960263 C162.951609,30.1158979 164.122877,30.2113233 165.351748,30.0204726 C166.561417,29.8296218 167.751886,29.5624308 168.942355,29.2188994 C171.496103,28.2646457 173.87704,26.6424144 176.046765,24.3903756 C176.353983,25.2110338 176.834011,25.9744368 177.50605,26.7187547 C176.680402,27.3676472 175.816352,28.1119651 174.933101,28.9135382 C173.051392,30.7457054 171.918527,32.4061068 171.534505,33.7993173 C171.400097,34.2001038 171.342494,34.6008904 171.323293,35.0016769 C171.246488,36.9674396 172.340951,38.2270545 174.56828,38.7614366 C175.336324,38.9522873 176.104369,39.0286276 176.853212,38.9904575 C178.082083,38.9332022 179.291753,38.5515008 180.424618,37.8644381 C182.594344,36.547568 183.40079,34.6963158 182.767154,32.3297665 C182.671148,32.0053203 182.555942,31.680874 182.402333,31.3564278 C182.248724,31.0510666 182.095115,30.7266203 181.903104,30.4212591 C181.711093,30.0968129 181.538283,29.8296218 181.365473,29.5815158 C181.192663,29.3334099 180.962249,29.0471338 180.712635,28.7226875 C180.463021,28.4173263 180.27101,28.1692203 180.117401,27.9974547 C179.963792,27.8066039 179.75258,27.577583 179.445362,27.2531368 C179.23415,27.043201 179.099742,26.8905204 179.022937,26.795095 C179.790982,26.2225428 180.674233,25.6499905 181.653489,25.0965234 C184.303242,23.4933772 186.588174,22.424613 188.489084,21.8902309 C188.892308,21.7757205 189.045916,21.5466996 188.988313,21.2222533" id="Shape"></path>
                <path d="M82.5987418,36.1020408 C82.5987418,36.4013605 82.8716204,36.6793003 83.1654897,36.6793003 L85.0546492,36.6793003 C85.3904998,36.6793003 85.621397,36.4013605 85.621397,36.1020408 L85.621397,21.2215743 L85.6423877,21.2215743 L98.6565977,36.97862 L99.4332521,36.97862 C99.7271214,36.97862 100,36.7434402 100,36.4227405 L100,15.8765792 C100,15.5772595 99.7271214,15.2993197 99.4332521,15.2993197 L97.523102,15.2993197 C97.1872514,15.2993197 96.9563541,15.5772595 96.9563541,15.8765792 L96.9563541,30.3294461 L96.9353635,30.3294461 L83.9211535,15 L83.1654897,15 C82.8716204,15 82.5987418,15.2351798 82.5987418,15.5558795 L82.5987418,36.1020408 L82.5987418,36.1020408 Z M65.7432408,29.4101069 L69.3956159,21.0505345 L69.5425505,21.0505345 L73.2369069,29.4101069 L65.7432408,29.4101069 Z M60.1807156,36.6793003 L62.0698751,36.6793003 C62.4267163,36.6793003 62.6786043,36.4441205 62.7625669,36.2303207 C63.3712961,34.819242 64.0010159,33.4509232 64.5887544,32.0398445 L74.3913933,32.0398445 L76.2595621,36.2303207 C76.3855061,36.5082604 76.5954127,36.6793003 76.9522539,36.6793003 L78.8414134,36.6793003 C79.2822173,36.6793003 79.5341053,36.2730807 79.3451893,35.888241 L70.193261,15.3420797 C70.1092984,15.1496599 69.8364198,15 69.6894851,15 L69.3956159,15 C69.2486812,15 68.9758026,15.1496599 68.89184,15.3420797 L59.6769397,35.888241 C59.4880238,36.2944606 59.718921,36.6793003 60.1807156,36.6793003 M38.6233064,26.03207 C38.6233064,32.1467444 43.4511585,37 49.4125063,37 C53.7575732,37 56.8432004,34.9902818 56.8432004,34.9902818 C56.9691444,34.9047619 57.0740977,34.6482021 57.0740977,34.4985423 C57.0740977,32.0612245 57.053107,29.5597668 57.053107,27.101069 C57.053107,26.8017493 56.8222098,26.5238095 56.5073499,26.5238095 L51.0497779,26.5238095 C50.7139273,26.5238095 50.4830301,26.7589893 50.4830301,27.101069 L50.4830301,28.8756074 C50.4830301,29.1749271 50.7139273,29.4314869 51.0497779,29.4314869 L53.9884705,29.4314869 L53.9884705,32.8522838 C53.6946012,32.9805637 51.973367,33.8999028 49.496469,33.8999028 C45.2353647,33.8999028 41.9608216,30.2439261 41.9608216,25.98931 C41.9608216,21.7133139 45.2353647,18.0573372 49.496469,18.0573372 C51.3226565,18.0573372 53.1908254,18.8911565 54.5971997,20.1311953 C54.8910689,20.4091351 55.1429569,20.4305151 55.3738541,20.1525753 C55.814658,19.6608358 56.2764526,19.2118562 56.7172565,18.7201166 C56.9481537,18.4849368 56.9271631,18.1000972 56.6962658,17.8649174 C54.6601717,16.090379 52.2882269,15.0213105 49.4125063,15.0213105 C43.4511585,15 38.6233064,19.9173955 38.6233064,26.03207 M23.0062545,36.1020408 C23.0062545,36.4013605 23.2371517,36.6793003 23.5730023,36.6793003 L35.5586699,36.6793003 C35.8945205,36.6793003 36.1254178,36.4013605 36.1254178,36.1020408 L36.1254178,34.4130224 C36.1254178,34.1137026 35.8945205,33.8357629 35.5586699,33.8357629 L26.0918817,33.8357629 L26.0918817,27.2721088 L34.0893236,27.2721088 C34.3831929,27.2721088 34.6560715,27.0369291 34.6560715,26.6948494 L34.6560715,24.9844509 C34.6560715,24.6851312 34.3831929,24.4071914 34.0893236,24.4071914 L26.0918817,24.4071914 L26.0918817,18.1856171 L35.5586699,18.1856171 C35.8945205,18.1856171 36.1254178,17.9076774 36.1254178,17.6083576 L36.1254178,15.8979592 C36.1254178,15.5986395 35.8945205,15.3206997 35.5586699,15.3206997 L23.5730023,15.3206997 C23.2371517,15.3206997 23.0062545,15.5986395 23.0062545,15.8979592 L23.0062545,36.1020408 Z M9.21539001,36.6579203 C9.29935266,36.8503401 9.50925927,37 9.71916588,37 L10.0130351,37 C10.2439324,37 10.4328484,36.8503401 10.516811,36.6579203 L19.7317113,16.111759 C19.9206273,15.7055394 19.6687393,15.3206997 19.2279354,15.3206997 L17.1078786,15.3206997 C16.8350001,15.3206997 16.6670748,15.5131195 16.6041028,15.6627794 L10.0130351,30.7784257 L9.82411919,30.7784257 L3.21206089,15.6413994 C3.1490889,15.4917396 2.93918229,15.2993197 2.70828502,15.2993197 L0.567237569,15.2993197 C0.126433682,15.2993197 -0.125454253,15.7055394 0.0634616982,16.090379 L9.21539001,36.6579203 Z" id="Shape"></path>
            </g>
        </g>
    </g>
</svg>